<?xml version="1.0" encoding="UTF-8" standalone="no"?>
<!DOCTYPE svg PUBLIC "-//W3C//DTD SVG 1.1//EN"
 "http://www.w3.org/Graphics/SVG/1.1/DTD/svg11.dtd">
<!-- Generated by graphviz version 2.26.3 (20100126.1600)
 -->
<!-- Title: ppt Pages: 1 -->
<svg width="1993pt" height="1006pt"
 viewBox="0.00 0.00 1993.00 1006.00" xmlns="http://www.w3.org/2000/svg" xmlns:xlink="http://www.w3.org/1999/xlink">
<g id="graph1" class="graph" transform="scale(1 1) rotate(0) translate(4 1002)">
<title>ppt</title>
<polygon fill="white" stroke="white" points="-4,5 -4,-1002 1990,-1002 1990,5 -4,5"/>
<!-- init_robot -->
<g id="node1" class="node"><title>init_robot</title>
<ellipse fill="none" stroke="black" cx="821" cy="-979" rx="58.1882" ry="18.3848"/>
<text text-anchor="middle" x="821" y="-975.4" font-family="Times Roman,serif" font-size="14.00">init_robot</text>
</g>
<!-- get_task -->
<g id="node3" class="node"><title>get_task</title>
<ellipse fill="none" stroke="black" cx="821" cy="-887" rx="53.2379" ry="18.3848"/>
<text text-anchor="middle" x="821" y="-883.4" font-family="Times Roman,serif" font-size="14.00">get_task</text>
</g>
<!-- init_robot&#45;&gt;get_task -->
<g id="edge2" class="edge"><title>init_robot&#45;&gt;get_task</title>
<path fill="none" stroke="black" d="M821,-960.382C821,-947.538 821,-930.216 821,-915.627"/>
<polygon fill="black" stroke="black" points="824.5,-915.59 821,-905.59 817.5,-915.59 824.5,-915.59"/>
<text text-anchor="middle" x="856.5" y="-929.4" font-family="Times Roman,serif" font-size="14.00">succeeded</text>
</g>
<!-- get_task&#45;&gt;get_task -->
<g id="edge6" class="edge"><title>get_task&#45;&gt;get_task</title>
<path fill="none" stroke="black" d="M872.695,-891.185C883.885,-890.776 892,-889.381 892,-887 892,-885.438 888.505,-884.3 882.94,-883.586"/>
<polygon fill="black" stroke="black" points="882.929,-880.076 872.695,-882.815 882.404,-887.056 882.929,-880.076"/>
<text text-anchor="middle" x="933" y="-883.4" font-family="Times Roman,serif" font-size="14.00">wrong_task</text>
</g>
<!-- get_task&#45;&gt;get_task -->
<g id="edge8" class="edge"><title>get_task&#45;&gt;get_task</title>
<path fill="none" stroke="black" d="M857.791,-900.429C904.986,-909.242 974,-904.766 974,-887 974,-870.448 914.099,-865.432 867.747,-871.95"/>
<polygon fill="black" stroke="black" points="867.099,-868.509 857.791,-873.571 868.224,-875.418 867.099,-868.509"/>
<text text-anchor="middle" x="1041.5" y="-883.4" font-family="Times Roman,serif" font-size="14.00">wrong_task_format</text>
</g>
<!-- setup_task -->
<g id="node5" class="node"><title>setup_task</title>
<ellipse fill="none" stroke="black" cx="821" cy="-795" rx="65.0538" ry="18.3848"/>
<text text-anchor="middle" x="821" y="-791.4" font-family="Times Roman,serif" font-size="14.00">setup_task</text>
</g>
<!-- get_task&#45;&gt;setup_task -->
<g id="edge4" class="edge"><title>get_task&#45;&gt;setup_task</title>
<path fill="none" stroke="black" d="M821,-868.382C821,-855.538 821,-838.216 821,-823.627"/>
<polygon fill="black" stroke="black" points="824.5,-823.59 821,-813.59 817.5,-823.59 824.5,-823.59"/>
<text text-anchor="middle" x="868.5" y="-837.4" font-family="Times Roman,serif" font-size="14.00">task_recieved</text>
</g>
<!-- go_and_pick -->
<g id="node9" class="node"><title>go_and_pick</title>
<ellipse fill="none" stroke="black" cx="821" cy="-703" rx="70.9184" ry="18.3848"/>
<text text-anchor="middle" x="821" y="-699.4" font-family="Times Roman,serif" font-size="14.00">go_and_pick</text>
</g>
<!-- setup_task&#45;&gt;go_and_pick -->
<g id="edge10" class="edge"><title>setup_task&#45;&gt;go_and_pick</title>
<path fill="none" stroke="black" d="M821,-776.382C821,-763.538 821,-746.216 821,-731.627"/>
<polygon fill="black" stroke="black" points="824.5,-731.59 821,-721.59 817.5,-731.59 824.5,-731.59"/>
<text text-anchor="middle" x="847" y="-745.4" font-family="Times Roman,serif" font-size="14.00">success</text>
</g>
<!-- go_and_pick_substate_machine -->
<g id="node11" class="node"><title>go_and_pick_substate_machine</title>
<ellipse fill="none" stroke="black" cx="821" cy="-627" rx="164.756" ry="18.3848"/>
<text text-anchor="middle" x="821" y="-623.4" font-family="Times Roman,serif" font-size="14.00">go_and_pick_substate_machine</text>
</g>
<!-- go_and_pick&#45;&gt;go_and_pick_substate_machine -->
<g id="edge12" class="edge"><title>go_and_pick&#45;&gt;go_and_pick_substate_machine</title>
<path fill="none" stroke="black" d="M821,-684.213C821,-675.654 821,-665.33 821,-655.822"/>
<polygon fill="black" stroke="black" points="824.5,-655.57 821,-645.57 817.5,-655.57 824.5,-655.57"/>
</g>
<!-- select_source_subtask -->
<g id="node13" class="node"><title>select_source_subtask</title>
<ellipse fill="none" stroke="black" cx="821" cy="-551" rx="120.208" ry="18.3848"/>
<text text-anchor="middle" x="821" y="-547.4" font-family="Times Roman,serif" font-size="14.00">select_source_subtask</text>
</g>
<!-- go_and_pick_substate_machine&#45;&gt;select_source_subtask -->
<g id="edge14" class="edge"><title>go_and_pick_substate_machine&#45;&gt;select_source_subtask</title>
<path fill="none" stroke="black" d="M821,-608.213C821,-599.654 821,-589.33 821,-579.822"/>
<polygon fill="black" stroke="black" points="824.5,-579.57 821,-569.57 817.5,-579.57 824.5,-579.57"/>
</g>
<!-- move_to_source_location -->
<g id="node15" class="node"><title>move_to_source_location</title>
<ellipse fill="none" stroke="black" cx="572" cy="-475" rx="133.851" ry="18.3848"/>
<text text-anchor="middle" x="572" y="-471.4" font-family="Times Roman,serif" font-size="14.00">move_to_source_location</text>
</g>
<!-- select_source_subtask&#45;&gt;move_to_source_location -->
<g id="edge16" class="edge"><title>select_source_subtask&#45;&gt;move_to_source_location</title>
<path fill="none" stroke="black" d="M766.664,-534.415C728.591,-522.795 677.521,-507.207 637.242,-494.913"/>
<polygon fill="black" stroke="black" points="638.099,-491.515 627.512,-491.944 636.055,-498.21 638.099,-491.515"/>
</g>
<!-- no_more_tasks_for_given_type -->
<g id="node17" class="node"><title>no_more_tasks_for_given_type</title>
<ellipse fill="none" stroke="black" cx="904" cy="-475" rx="162.134" ry="18.3848"/>
<text text-anchor="middle" x="904" y="-471.4" font-family="Times Roman,serif" font-size="14.00">no_more_tasks_for_given_type</text>
</g>
<!-- select_source_subtask&#45;&gt;no_more_tasks_for_given_type -->
<g id="edge18" class="edge"><title>select_source_subtask&#45;&gt;no_more_tasks_for_given_type</title>
<path fill="none" stroke="black" d="M841.092,-532.603C851.617,-522.965 864.672,-511.012 876.156,-500.496"/>
<polygon fill="black" stroke="black" points="878.794,-502.826 883.805,-493.491 874.066,-497.663 878.794,-502.826"/>
</g>
<!-- move_to_source_location&#45;&gt;move_to_source_location -->
<g id="edge22" class="edge"><title>move_to_source_location&#45;&gt;move_to_source_location</title>
<path fill="none" stroke="black" d="M698.38,-481.164C713.855,-480.061 724,-478.006 724,-475 724,-472.722 718.174,-470.99 708.618,-469.805"/>
<polygon fill="black" stroke="black" points="708.666,-466.294 698.38,-468.836 708.006,-473.263 708.666,-466.294"/>
</g>
<!-- prepare_for_perception -->
<g id="node19" class="node"><title>prepare_for_perception</title>
<ellipse fill="none" stroke="black" cx="572" cy="-399" rx="123.951" ry="18.3848"/>
<text text-anchor="middle" x="572" y="-395.4" font-family="Times Roman,serif" font-size="14.00">prepare_for_perception</text>
</g>
<!-- move_to_source_location&#45;&gt;prepare_for_perception -->
<g id="edge20" class="edge"><title>move_to_source_location&#45;&gt;prepare_for_perception</title>
<path fill="none" stroke="black" d="M566.084,-456.213C565.271,-447.654 565.052,-437.33 565.428,-427.822"/>
<polygon fill="black" stroke="black" points="568.938,-427.779 566.105,-417.57 561.954,-427.318 568.938,-427.779"/>
</g>
<!-- prepare_for_perception&#45;&gt;move_to_source_location -->
<g id="edge44" class="edge"><title>prepare_for_perception&#45;&gt;move_to_source_location</title>
<path fill="none" stroke="black" d="M577.895,-417.57C578.718,-426.1 578.947,-436.415 578.581,-445.938"/>
<polygon fill="black" stroke="black" points="575.069,-446.008 577.916,-456.213 582.055,-446.461 575.069,-446.008"/>
</g>
<!-- prepare_for_perception&#45;&gt;prepare_for_perception -->
<g id="edge46" class="edge"><title>prepare_for_perception&#45;&gt;prepare_for_perception</title>
<path fill="none" stroke="black" d="M688.713,-405.264C703.929,-404.187 714,-402.099 714,-399 714,-396.652 708.216,-394.884 698.793,-393.697"/>
<polygon fill="black" stroke="black" points="699,-390.201 688.713,-392.736 698.336,-397.169 699,-390.201"/>
</g>
<!-- prepare_for_perception_concurrence -->
<g id="node22" class="node"><title>prepare_for_perception_concurrence</title>
<ellipse fill="none" stroke="black" cx="572" cy="-323" rx="189.005" ry="18.3848"/>
<text text-anchor="middle" x="572" y="-319.4" font-family="Times Roman,serif" font-size="14.00">prepare_for_perception_concurrence</text>
</g>
<!-- prepare_for_perception&#45;&gt;prepare_for_perception_concurrence -->
<g id="edge24" class="edge"><title>prepare_for_perception&#45;&gt;prepare_for_perception_concurrence</title>
<path fill="none" stroke="black" d="M566.084,-380.213C565.271,-371.654 565.052,-361.33 565.428,-351.822"/>
<polygon fill="black" stroke="black" points="568.938,-351.779 566.105,-341.57 561.954,-351.318 568.938,-351.779"/>
</g>
<!-- recognize_objects -->
<g id="node37" class="node"><title>recognize_objects</title>
<ellipse fill="none" stroke="black" cx="1601" cy="-323" rx="97.7889" ry="18.3848"/>
<text text-anchor="middle" x="1601" y="-319.4" font-family="Times Roman,serif" font-size="14.00">recognize_objects</text>
</g>
<!-- prepare_for_perception&#45;&gt;recognize_objects -->
<g id="edge42" class="edge"><title>prepare_for_perception&#45;&gt;recognize_objects</title>
<path fill="none" stroke="black" d="M683.589,-390.758C884.85,-375.893 1305.67,-344.813 1499.4,-330.504"/>
<polygon fill="black" stroke="black" points="1499.86,-333.979 1509.58,-329.752 1499.35,-326.998 1499.86,-333.979"/>
</g>
<!-- prepare_for_perception_concurrence&#45;&gt;prepare_for_perception -->
<g id="edge40" class="edge"><title>prepare_for_perception_concurrence&#45;&gt;prepare_for_perception</title>
<path fill="none" stroke="black" d="M577.895,-341.57C578.718,-350.1 578.947,-360.415 578.581,-369.938"/>
<polygon fill="black" stroke="black" points="575.069,-370.008 577.916,-380.213 582.055,-370.461 575.069,-370.008"/>
</g>
<!-- adjust_pose_wrt_workspace_at_source -->
<g id="node24" class="node"><title>adjust_pose_wrt_workspace_at_source</title>
<ellipse fill="none" stroke="black" cx="201" cy="-247" rx="201.025" ry="18.3848"/>
<text text-anchor="middle" x="201" y="-243.4" font-family="Times Roman,serif" font-size="14.00">adjust_pose_wrt_workspace_at_source</text>
</g>
<!-- prepare_for_perception_concurrence&#45;&gt;adjust_pose_wrt_workspace_at_source -->
<g id="edge26" class="edge"><title>prepare_for_perception_concurrence&#45;&gt;adjust_pose_wrt_workspace_at_source</title>
<path fill="none" stroke="black" d="M485.82,-306.509C426.673,-294.665 348.469,-278.664 288.948,-266.237"/>
<polygon fill="black" stroke="black" points="289.317,-262.738 278.812,-264.117 287.884,-269.59 289.317,-262.738"/>
</g>
<!-- move_arm_out_of_view_safe -->
<g id="node26" class="node"><title>move_arm_out_of_view_safe</title>
<ellipse fill="none" stroke="black" cx="572" cy="-247" rx="152.028" ry="18.3848"/>
<text text-anchor="middle" x="572" y="-243.4" font-family="Times Roman,serif" font-size="14.00">move_arm_out_of_view_safe</text>
</g>
<!-- prepare_for_perception_concurrence&#45;&gt;move_arm_out_of_view_safe -->
<g id="edge28" class="edge"><title>prepare_for_perception_concurrence&#45;&gt;move_arm_out_of_view_safe</title>
<path fill="none" stroke="black" d="M572,-304.213C572,-295.654 572,-285.33 572,-275.822"/>
<polygon fill="black" stroke="black" points="575.5,-275.57 572,-265.57 568.5,-275.57 575.5,-275.57"/>
</g>
<!-- adjust_pose_wrt_workspace_at_source&#45;&gt;prepare_for_perception_concurrence -->
<g id="edge38" class="edge"><title>adjust_pose_wrt_workspace_at_source&#45;&gt;prepare_for_perception_concurrence</title>
<path fill="none" stroke="black" d="M288.29,-263.713C347.567,-275.588 425.598,-291.556 484.846,-303.929"/>
<polygon fill="black" stroke="black" points="484.428,-307.417 494.932,-306.039 485.861,-300.565 484.428,-307.417"/>
</g>
<!-- move_arm_out_of_view_safe_substate_machine -->
<g id="node28" class="node"><title>move_arm_out_of_view_safe_substate_machine</title>
<ellipse fill="none" stroke="black" cx="479" cy="-171" rx="244.866" ry="18.3848"/>
<text text-anchor="middle" x="479" y="-167.4" font-family="Times Roman,serif" font-size="14.00">move_arm_out_of_view_safe_substate_machine</text>
</g>
<!-- move_arm_out_of_view_safe&#45;&gt;move_arm_out_of_view_safe_substate_machine -->
<g id="edge30" class="edge"><title>move_arm_out_of_view_safe&#45;&gt;move_arm_out_of_view_safe_substate_machine</title>
<path fill="none" stroke="black" d="M549.487,-228.603C537.468,-218.78 522.503,-206.551 509.458,-195.891"/>
<polygon fill="black" stroke="black" points="511.586,-193.109 501.628,-189.491 507.156,-198.53 511.586,-193.109"/>
</g>
<!-- add_walls_to_planning_scene -->
<g id="node30" class="node"><title>add_walls_to_planning_scene</title>
<ellipse fill="none" stroke="black" cx="547" cy="-95" rx="154.856" ry="18.3848"/>
<text text-anchor="middle" x="547" y="-91.4" font-family="Times Roman,serif" font-size="14.00">add_walls_to_planning_scene</text>
</g>
<!-- move_arm_out_of_view_safe_substate_machine&#45;&gt;add_walls_to_planning_scene -->
<g id="edge32" class="edge"><title>move_arm_out_of_view_safe_substate_machine&#45;&gt;add_walls_to_planning_scene</title>
<path fill="none" stroke="black" d="M495.809,-152.213C504.208,-142.826 514.507,-131.316 523.659,-121.087"/>
<polygon fill="black" stroke="black" points="526.325,-123.357 530.384,-113.57 521.108,-118.689 526.325,-123.357"/>
</g>
<!-- move_arm_out_of_view -->
<g id="node32" class="node"><title>move_arm_out_of_view</title>
<ellipse fill="none" stroke="black" cx="695" cy="-19" rx="126.78" ry="18.3848"/>
<text text-anchor="middle" x="695" y="-15.4" font-family="Times Roman,serif" font-size="14.00">move_arm_out_of_view</text>
</g>
<!-- add_walls_to_planning_scene&#45;&gt;move_arm_out_of_view -->
<g id="edge34" class="edge"><title>add_walls_to_planning_scene&#45;&gt;move_arm_out_of_view</title>
<path fill="none" stroke="black" d="M582.45,-76.7961C603.027,-66.2293 629.122,-52.8291 651.004,-41.5927"/>
<polygon fill="black" stroke="black" points="652.798,-44.6057 660.095,-36.9241 649.601,-38.3787 652.798,-44.6057"/>
</g>
<!-- move_arm_out_of_view&#45;&gt;prepare_for_perception_concurrence -->
<g id="edge36" class="edge"><title>move_arm_out_of_view&#45;&gt;prepare_for_perception_concurrence</title>
<path fill="none" stroke="black" d="M719.504,-37.4491C734.953,-51.3449 752,-71.9097 752,-95 752,-247 752,-247 752,-247 752,-269.73 702.67,-289.49 655.659,-303.16"/>
<polygon fill="black" stroke="black" points="654.66,-299.805 645.992,-305.898 656.567,-306.54 654.66,-299.805"/>
</g>
<!-- select_object_to_be_grasped -->
<g id="node41" class="node"><title>select_object_to_be_grasped</title>
<ellipse fill="none" stroke="black" cx="1234" cy="-247" rx="149.907" ry="18.3848"/>
<text text-anchor="middle" x="1234" y="-243.4" font-family="Times Roman,serif" font-size="14.00">select_object_to_be_grasped</text>
</g>
<!-- recognize_objects&#45;&gt;select_object_to_be_grasped -->
<g id="edge48" class="edge"><title>recognize_objects&#45;&gt;select_object_to_be_grasped</title>
<path fill="none" stroke="black" d="M1534.96,-309.325C1475.09,-296.927 1386.45,-278.569 1320.85,-264.986"/>
<polygon fill="black" stroke="black" points="1321.44,-261.534 1310.94,-262.933 1320.02,-268.388 1321.44,-261.534"/>
</g>
<!-- select_arm_pose_random -->
<g id="node43" class="node"><title>select_arm_pose_random</title>
<ellipse fill="none" stroke="black" cx="1601" cy="-247" rx="133.851" ry="18.3848"/>
<text text-anchor="middle" x="1601" y="-243.4" font-family="Times Roman,serif" font-size="14.00">select_arm_pose_random</text>
</g>
<!-- recognize_objects&#45;&gt;select_arm_pose_random -->
<g id="edge50" class="edge"><title>recognize_objects&#45;&gt;select_arm_pose_random</title>
<path fill="none" stroke="black" d="M1595.08,-304.213C1594.27,-295.654 1594.05,-285.33 1594.43,-275.822"/>
<polygon fill="black" stroke="black" points="1597.94,-275.779 1595.1,-265.57 1590.95,-275.318 1597.94,-275.779"/>
</g>
<!-- prepare_for_grasphing -->
<g id="node45" class="node"><title>prepare_for_grasphing</title>
<ellipse fill="none" stroke="black" cx="901" cy="-171" rx="120.915" ry="18.3848"/>
<text text-anchor="middle" x="901" y="-167.4" font-family="Times Roman,serif" font-size="14.00">prepare_for_grasphing</text>
</g>
<!-- select_object_to_be_grasped&#45;&gt;prepare_for_grasphing -->
<g id="edge52" class="edge"><title>select_object_to_be_grasped&#45;&gt;prepare_for_grasphing</title>
<path fill="none" stroke="black" d="M1162.56,-230.696C1108.3,-218.311 1033.77,-201.303 978.151,-188.608"/>
<polygon fill="black" stroke="black" points="978.873,-185.183 968.345,-186.37 977.316,-192.007 978.873,-185.183"/>
</g>
<!-- skip_object_source_pose -->
<g id="node47" class="node"><title>skip_object_source_pose</title>
<ellipse fill="none" stroke="black" cx="1170" cy="-171" rx="130.108" ry="18.3848"/>
<text text-anchor="middle" x="1170" y="-167.4" font-family="Times Roman,serif" font-size="14.00">skip_object_source_pose</text>
</g>
<!-- select_object_to_be_grasped&#45;&gt;skip_object_source_pose -->
<g id="edge54" class="edge"><title>select_object_to_be_grasped&#45;&gt;skip_object_source_pose</title>
<path fill="none" stroke="black" d="M1218.18,-228.213C1210.35,-218.918 1200.77,-207.541 1192.22,-197.388"/>
<polygon fill="black" stroke="black" points="1194.76,-194.965 1185.64,-189.57 1189.4,-199.474 1194.76,-194.965"/>
</g>
<!-- no_more_free_poses_at_robot_platf -->
<g id="node49" class="node"><title>no_more_free_poses_at_robot_platf</title>
<ellipse fill="none" stroke="black" cx="1502" cy="-171" rx="184.055" ry="18.3848"/>
<text text-anchor="middle" x="1502" y="-167.4" font-family="Times Roman,serif" font-size="14.00">no_more_free_poses_at_robot_platf</text>
</g>
<!-- select_object_to_be_grasped&#45;&gt;no_more_free_poses_at_robot_platf -->
<g id="edge56" class="edge"><title>select_object_to_be_grasped&#45;&gt;no_more_free_poses_at_robot_platf</title>
<path fill="none" stroke="black" d="M1294.14,-229.944C1334.52,-218.494 1387.9,-203.356 1430.46,-191.287"/>
<polygon fill="black" stroke="black" points="1431.53,-194.622 1440.2,-188.526 1429.62,-187.887 1431.53,-194.622"/>
</g>
<!-- select_arm_pose_random&#45;&gt;recognize_objects -->
<g id="edge60" class="edge"><title>select_arm_pose_random&#45;&gt;recognize_objects</title>
<path fill="none" stroke="black" d="M1606.9,-265.57C1607.72,-274.1 1607.95,-284.415 1607.58,-293.938"/>
<polygon fill="black" stroke="black" points="1604.07,-294.008 1606.92,-304.213 1611.05,-294.461 1604.07,-294.008"/>
</g>
<!-- look_around -->
<g id="node51" class="node"><title>look_around</title>
<ellipse fill="none" stroke="black" cx="1775" cy="-171" rx="70.9184" ry="18.3848"/>
<text text-anchor="middle" x="1775" y="-167.4" font-family="Times Roman,serif" font-size="14.00">look_around</text>
</g>
<!-- select_arm_pose_random&#45;&gt;look_around -->
<g id="edge58" class="edge"><title>select_arm_pose_random&#45;&gt;look_around</title>
<path fill="none" stroke="black" d="M1641.8,-229.181C1668.03,-217.721 1702.17,-202.812 1729.31,-190.955"/>
<polygon fill="black" stroke="black" points="1730.84,-194.109 1738.6,-186.899 1728.04,-187.694 1730.84,-194.109"/>
</g>
<!-- look_around&#45;&gt;look_around -->
<g id="edge64" class="edge"><title>look_around&#45;&gt;look_around</title>
<path fill="none" stroke="black" d="M1840.98,-177.853C1854.4,-177.107 1864,-174.822 1864,-171 1864,-168.223 1858.93,-166.258 1851.01,-165.104"/>
<polygon fill="black" stroke="black" points="1851.27,-161.613 1840.98,-164.147 1850.6,-168.581 1851.27,-161.613"/>
</g>
<!-- recognize_objects_loop -->
<g id="node54" class="node"><title>recognize_objects_loop</title>
<ellipse fill="none" stroke="black" cx="1862" cy="-95" rx="123.243" ry="18.3848"/>
<text text-anchor="middle" x="1862" y="-91.4" font-family="Times Roman,serif" font-size="14.00">recognize_objects_loop</text>
</g>
<!-- look_around&#45;&gt;recognize_objects_loop -->
<g id="edge62" class="edge"><title>look_around&#45;&gt;recognize_objects_loop</title>
<path fill="none" stroke="black" d="M1795.62,-152.989C1806.83,-143.195 1820.88,-130.924 1833.16,-120.196"/>
<polygon fill="black" stroke="black" points="1835.7,-122.624 1840.93,-113.41 1831.09,-117.353 1835.7,-122.624"/>
</g>
<!-- recognize_objects_loop&#45;&gt;recognize_objects -->
<g id="edge66" class="edge"><title>recognize_objects_loop&#45;&gt;recognize_objects</title>
<path fill="none" stroke="black" d="M1870.33,-113.462C1878.09,-133.625 1886.59,-166.215 1873,-190 1834.24,-257.828 1748.81,-291.727 1683.96,-308.231"/>
<polygon fill="black" stroke="black" points="1683.02,-304.857 1674.15,-310.638 1684.69,-311.655 1683.02,-304.857"/>
</g>
<!-- skip_source_pose -->
<g id="node58" class="node"><title>skip_source_pose</title>
<ellipse fill="none" stroke="black" cx="1862" cy="-19" rx="94.9596" ry="18.3848"/>
<text text-anchor="middle" x="1862" y="-15.4" font-family="Times Roman,serif" font-size="14.00">skip_source_pose</text>
</g>
<!-- recognize_objects_loop&#45;&gt;skip_source_pose -->
<g id="edge68" class="edge"><title>recognize_objects_loop&#45;&gt;skip_source_pose</title>
<path fill="none" stroke="black" d="M1862,-76.2135C1862,-67.6543 1862,-57.3303 1862,-47.8218"/>
<polygon fill="black" stroke="black" points="1865.5,-47.5704 1862,-37.5704 1858.5,-47.5705 1865.5,-47.5704"/>
</g>
</g>
</svg>
